[Header]
FileType HTR
DataType HTRS
FileVersion 1
NumSegments 64
NumFrames 4
DataFrameRate 30
EulerRotationOrder ZYX
CalibrationUnits mm
RotationUnits Degrees
GlobalAxisofGravity Y
BoneLengthAxis Y
ScaleFactor 1.0
[SegmentNames&Hierarchy]
Hips	GLOBAL
Spine	Hips
Spine1	Spine
Spine2	Spine1
Neck	Spine2
Head	Neck
LeftEye	Head
RightEye	Head
LeftShoulder	Spine2
LeftArm	LeftShoulder
LeftForeArm	LeftArm
LeftHand	LeftForeArm
LeftHandThumb1	LeftHand
LeftHandThumb2	LeftHandThumb1
LeftHandThumb3	LeftHandThumb2
LeftHandThumb4	LeftHandThumb3
LeftHandIndex1	LeftHand
LeftHandIndex2	LeftHandIndex1
LeftHandIndex3	LeftHandIndex2
LeftHandIndex4	LeftHandIndex3
LeftHandMiddle1	LeftHand
LeftHandMiddle2	LeftHandMiddle1
LeftHandMiddle3	LeftHandMiddle2
LeftHandMiddle4	LeftHandMiddle3
LeftHandRing1	LeftHand
LeftHandRing2	LeftHandRing1
LeftHandRing3	LeftHandRing2
LeftHandRing4	LeftHandRing3
LeftHandPinky1	LeftHand
LeftHandPinky2	LeftHandPinky1
LeftHandPinky3	LeftHandPinky2
LeftHandPinky4	LeftHandPinky3
RightShoulder	Spine2
RightArm	RightShoulder
RightForeArm	RightArm
RightHand	RightForeArm
RightHandPinky1	RightHand
RightHandPinky2	RightHandPinky1
RightHandPinky3	RightHandPinky2
RightHandPinky4	RightHandPinky3
RightHandRing1	RightHand
RightHandRing2	RightHandRing1
RightHandRing3	RightHandRing2
RightHandRing4	RightHandRing3
RightHandMiddle1	RightHand
RightHandMiddle2	RightHandMiddle1
RightHandMiddle3	RightHandMiddle2
RightHandMiddle4	RightHandMiddle3
RightHandIndex1	RightHand
RightHandIndex2	RightHandIndex1
RightHandIndex3	RightHandIndex2
RightHandIndex4	RightHandIndex3
RightHandThumb1	RightHand
RightHandThumb2	RightHandThumb1
RightHandThumb3	RightHandThumb2
RightHandThumb4	RightHandThumb3
LeftUpLeg	Hips
LeftLeg	LeftUpLeg
LeftFoot	LeftLeg
LeftToeBase	LeftFoot
RightUpLeg	Hips
RightLeg	RightUpLeg
RightFoot	RightLeg
RightToeBase	RightFoot
[BasePosition]
Hips	0	0	0	0	0	0	1
Spine	0	0	0	0	0	0	1
Spine1	0	0	0	0	0	0	1
Spine2	0	0	0	0	0	0	1
Neck	0	0	0	0	0	0	1
Head	0	0	0	0	0	0	1
LeftEye	0	0	0	0	0	0	1
RightEye	0	0	0	0	0	0	1
LeftShoulder	0	0	0	0	0	0	1
LeftArm	0	0	0	0	0	0	1
LeftForeArm	0	0	0	0	0	0	1
LeftHand	0	0	0	0	0	0	1
LeftHandThumb1	0	0	0	0	0	0	1
LeftHandThumb2	0	0	0	0	0	0	1
LeftHandThumb3	0	0	0	0	0	0	1
LeftHandThumb4	0	0	0	0	0	0	1
LeftHandIndex1	0	0	0	0	0	0	1
LeftHandIndex2	0	0	0	0	0	0	1
LeftHandIndex3	0	0	0	0	0	0	1
LeftHandIndex4	0	0	0	0	0	0	1
LeftHandMiddle1	0	0	0	0	0	0	1
LeftHandMiddle2	0	0	0	0	0	0	1
LeftHandMiddle3	0	0	0	0	0	0	1
LeftHandMiddle4	0	0	0	0	0	0	1
LeftHandRing1	0	0	0	0	0	0	1
LeftHandRing2	0	0	0	0	0	0	1
LeftHandRing3	0	0	0	0	0	0	1
LeftHandRing4	0	0	0	0	0	0	1
LeftHandPinky1	0	0	0	0	0	0	1
LeftHandPinky2	0	0	0	0	0	0	1
LeftHandPinky3	0	0	0	0	0	0	1
LeftHandPinky4	0	0	0	0	0	0	1
RightShoulder	0	0	0	0	0	0	1
RightArm	0	0	0	0	0	0	1
RightForeArm	0	0	0	0	0	0	1
RightHand	0	0	0	0	0	0	1
RightHandPinky1	0	0	0	0	0	0	1
RightHandPinky2	0	0	0	0	0	0	1
RightHandPinky3	0	0	0	0	0	0	1
RightHandPinky4	0	0	0	0	0	0	1
RightHandRing1	0	0	0	0	0	0	1
RightHandRing2	0	0	0	0	0	0	1
RightHandRing3	0	0	0	0	0	0	1
RightHandRing4	0	0	0	0	0	0	1
RightHandMiddle1	0	0	0	0	0	0	1
RightHandMiddle2	0	0	0	0	0	0	1
RightHandMiddle3	0	0	0	0	0	0	1
RightHandMiddle4	0	0	0	0	0	0	1
RightHandIndex1	0	0	0	0	0	0	1
RightHandIndex2	0	0	0	0	0	0	1
RightHandIndex3	0	0	0	0	0	0	1
RightHandIndex4	0	0	0	0	0	0	1
RightHandThumb1	0	0	0	0	0	0	1
RightHandThumb2	0	0	0	0	0	0	1
RightHandThumb3	0	0	0	0	0	0	1
RightHandThumb4	0	0	0	0	0	0	1
LeftUpLeg	0	0	0	0	0	0	1
LeftLeg	0	0	0	0	0	0	1
LeftFoot	0	0	0	0	0	0	1
LeftToeBase	0	0	0	0	0	0	1
RightUpLeg	0	0	0	0	0	0	1
RightLeg	0	0	0	0	0	0	1
RightFoot	0	0	0	0	0	0	1
RightToeBase	0	0	0	0	0	0	1
[Hips]
88 	-1.970432758	1034.224854	4.103914261	-2.723235607	-5.16206646	-2.811703444	1.0
89 	1.436278582	1033.994507	14.22783661	-3.418465614	-5.443017006	-3.429026127	1.0
90 	1.858178139	1033.404907	15.63796997	-3.241640091	-5.470491886	-3.474829435	1.0
91 	2.277605772	1032.819092	17.04235077	-3.066192627	-5.497216225	-3.520279884	1.0
[Spine]
88 	0	101.8159943	1.315000057	4.080457687	1.390495181	3.059668064	1.0
89 	0	101.8159943	1.315000057	3.376745462	1.382961392	2.831299782	1.0
90 	0	101.8159943	1.315000057	3.376881123	1.386332154	2.833422899	1.0
91 	0	101.8159943	1.315000057	3.377008438	1.389656305	2.835288286	1.0
[Spine1]
88 	0	100.8349991	-10.00800037	1.470451593	0.3127530217	1.760040045	1.0
89 	0	100.8349991	-10.00800037	1.171718121	0.3089021444	1.568757057	1.0
90 	0	100.8349991	-10.00800037	1.172147274	0.3144414127	1.568511724	1.0
91 	0	100.8349991	-10.00800037	1.172456503	0.3199806511	1.568025589	1.0
[Spine2]
88 	0	91	-13.73399925	1.439578772	0.3392785192	1.773723483	1.0
89 	0	91	-13.73399925	1.146634459	0.3324929774	1.56434226	1.0
90 	0	91	-13.73399925	1.14701879	0.335821569	1.567055821	1.0
91 	0	91	-13.73399925	1.147283316	0.3390874565	1.569596887	1.0
[Neck]
88 	0	166.7169952	-25.16200066	5.617417812	0.01503878366	0.798908174	1.0
89 	0	166.7169952	-25.16200066	5.625528336	-0.1228876635	0.4420210421	1.0
90 	0	166.7169952	-25.16200066	5.580237865	-0.1172676831	0.4408812523	1.0
91 	0	166.7169952	-25.16200066	5.534737587	-0.112271212	0.4401509464	1.0
[Head]
88 	0	96.17900085	16.84999847	-8.258464813	1.253086567	1.291684985	1.0
89 	0	96.17900085	16.84999847	-7.567394733	1.353103042	-0.2605768442	1.0
90 	0	96.17900085	16.84999847	-7.661093235	1.410141349	-0.3392037153	1.0
91 	0	96.17900085	16.84999847	-7.754534245	1.464024305	-0.4144211113	1.0
[LeftEye]
88 	30.6760006	64.09500122	92.83599854	0	0	0	1.0
89 	30.6760006	64.09500122	92.83599854	0	0	0	1.0
90 	30.6760006	64.09500122	92.83599854	0	0	0	1.0
91 	30.6760006	64.09500122	92.83599854	0	0	0	1.0
[RightEye]
88 	-30.6760006	64.09500122	92.83499908	0	0	0	1.0
89 	-30.6760006	64.09500122	92.83499908	0	0	0	1.0
90 	-30.6760006	64.09500122	92.83499908	0	0	0	1.0
91 	-30.6760006	64.09500122	92.83499908	0	0	0	1.0
[LeftShoulder]
88 	45.70400238	109.4599991	-26.28000069	5.117727757	-17.75356102	-13.107584	1.0
89 	45.70400238	109.4599991	-26.28000069	4.904743195	-16.79103851	-13.20486832	1.0
90 	45.70400238	109.4599991	-26.28000069	4.904735565	-16.81875229	-13.17965698	1.0
91 	45.70400238	109.4599991	-26.28000069	4.90530014	-16.84923744	-13.15416336	1.0
[LeftArm]
88 	105.923996	-5.24600029	-22.32099915	24.4217205	-6.091187	-71.39094543	1.0
89 	105.923996	-5.24600029	-22.32099915	20.11796188	-3.088480949	-71.00585938	1.0
90 	105.923996	-5.24600029	-22.32099915	20.17259789	-3.087391615	-71.01577759	1.0
91 	105.923996	-5.24600029	-22.32099915	20.21904755	-3.089216232	-71.02836609	1.0
[LeftForeArm]
88 	278.414978	-0.0009999999311	0	2.283678214e-06	-4.012564659	-0.0002124681923	1.0
89 	278.414978	-0.0009999999311	0	-1.470391794e-06	-1.459357858	-0.0001906880498	1.0
90 	278.414978	-0.0009999999311	0	-6.836972375e-07	-1.535442472	-0.0001935360779	1.0
91 	278.414978	-0.0009999999311	0	3.003891038e-07	-1.602793217	-0.0001960313675	1.0
[LeftHand]
88 	283.2879944	0	0	-36.36176682	-6.415017128	-3.017925501	1.0
89 	283.2879944	0	0	-32.95536423	-4.523302078	-4.439758778	1.0
90 	283.2879944	0	0	-33.02095032	-4.542016029	-4.410048485	1.0
91 	283.2879944	0	0	-33.08127594	-4.560717106	-4.377902031	1.0
[LeftHandThumb1]
88 	24.6609993	-15.75	26.8239994	-3.330260515	1.607306719	6.220460892	1.0
89 	24.6609993	-15.75	26.8239994	-0.4889875352	2.201390982	4.818538189	1.0
90 	24.6609993	-15.75	26.8239994	-0.4517171383	2.149297237	4.742519379	1.0
91 	24.6609993	-15.75	26.8239994	-0.407568574	2.100223303	4.664001942	1.0
[LeftHandThumb2]
88 	32.29800034	-18.64699936	18.64699936	19.91524124	20.39125252	22.38203239	1.0
89 	32.29800034	-18.64699936	18.64699936	19.89604187	19.96159363	23.26980209	1.0
90 	32.29800034	-18.64699936	18.64699936	19.89222908	19.92028427	23.29424286	1.0
91 	32.29800034	-18.64699936	18.64699936	19.8883934	19.87668419	23.32331085	1.0
[LeftHandThumb3]
88 	26.52600098	-15.31499958	15.31499958	-12.9248457	5.055298328	7.713687897	1.0
89 	26.52600098	-15.31499958	15.31499958	-13.14535713	5.551751137	7.967946529	1.0
90 	26.52600098	-15.31499958	15.31499958	-13.14862728	5.558998108	7.957176685	1.0
91 	26.52600098	-15.31499958	15.31499958	-13.15332222	5.568451881	7.945888996	1.0
[LeftHandThumb4]
88 	19.54599953	-11.28499985	11.28499985	0	0	0	1.0
89 	19.54599953	-11.28499985	11.28499985	0	0	0	1.0
90 	19.54599953	-11.28499985	11.28499985	0	0	0	1.0
91 	19.54599953	-11.28499985	11.28499985	0	0	0	1.0
[LeftHandIndex1]
88 	91.09299469	-5.170999527	22.60099792	0.1830694824	-1.128343105	-6.616247654	1.0
89 	91.09299469	-5.170999527	22.60099792	0.1480452418	-0.9586734772	-7.594169617	1.0
90 	91.09299469	-5.170999527	22.60099792	0.186046049	-0.9667804837	-7.459068775	1.0
91 	91.09299469	-5.170999527	22.60099792	0.2244743705	-0.9742304683	-7.328633308	1.0
[LeftHandIndex2]
88 	36.76399994	0	0	-0.2620237768	1.730156183	-17.22213554	1.0
89 	36.76399994	0	0	-0.2663781047	1.744142294	-17.36582947	1.0
90 	36.76399994	0	0	-0.2663782835	1.744140625	-17.36584091	1.0
91 	36.76399994	0	0	-0.2663784325	1.744138956	-17.36585236	1.0
[LeftHandIndex3]
88 	28.83100128	0	0	-0.05529014766	0.802067697	-7.88720417	1.0
89 	28.83100128	0	0	-0.05728863552	0.8163282275	-8.028375626	1.0
90 	28.83100128	0	0	-0.05728810281	0.8163281083	-8.028375626	1.0
91 	28.83100128	0	0	-0.05728757009	0.8163279295	-8.028373718	1.0
[LeftHandIndex4]
88 	23.92700005	0	0	0	0	0	1.0
89 	23.92700005	0	0	0	0	0	1.0
90 	23.92700005	0	0	0	0	0	1.0
91 	23.92700005	0	0	0	0	0	1.0
[LeftHandMiddle1]
88 	95.33399963	0	0	-0.8124500513	1.751770139	-16.01717758	1.0
89 	95.33399963	0	0	-0.7942906022	2.538624287	-15.7173748	1.0
90 	95.33399963	0	0	-0.7789940834	2.585639477	-15.48673916	1.0
91 	95.33399963	0	0	-0.764138341	2.63312459	-15.26292133	1.0
[LeftHandMiddle2]
88 	36.98199844	0	0	-0.2712678611	1.759678245	-17.52567291	1.0
89 	36.98199844	0	0	-0.2676110566	1.74806869	-17.40628624	1.0
90 	36.98199844	0	0	-0.2673769593	1.747321844	-17.3985939	1.0
91 	36.98199844	0	0	-0.2671707869	1.746664405	-17.391819	1.0
[LeftHandMiddle3]
88 	29.50900078	0	0	-0.3035255373	1.858706474	-18.54751396	1.0
89 	29.50900078	0	0	-0.2992154062	1.845815182	-18.41412163	1.0
90 	29.50900078	0	0	-0.2989688516	1.845074892	-18.40647507	1.0
91 	29.50900078	0	0	-0.2987515032	1.844422817	-18.39974022	1.0
[LeftHandMiddle4]
88 	28.3390007	0	0	0	0	0	1.0
89 	28.3390007	0	0	0	0	0	1.0
90 	28.3390007	0	0	0	0	0	1.0
91 	28.3390007	0	0	0	0	0	1.0
[LeftHandRing1]
88 	91.04499817	-0.4390000105	-18.65100098	-1.16600585	2.991092205	-20.92357063	1.0
89 	91.04499817	-0.4390000105	-18.65100098	-1.184941769	3.440432072	-21.166008	1.0
90 	91.04499817	-0.4390000105	-18.65100098	-1.1822505	3.437537193	-21.13032532	1.0
91 	91.04499817	-0.4390000105	-18.65100098	-1.179663897	3.434756279	-21.096035	1.0
[LeftHandRing2]
88 	31.54000092	0	0	-0.4085008204	2.146179199	-21.55109215	1.0
89 	31.54000092	0	0	-0.3849349916	2.085564137	-20.91278267	1.0
90 	31.54000092	0	0	-0.3864660263	2.089553595	-20.95471954	1.0
91 	31.54000092	0	0	-0.3879568577	2.093439817	-20.99556732	1.0
[LeftHandRing3]
88 	29.37700081	0	0	-0.3028799593	1.856777072	-18.52754021	1.0
89 	29.37700081	0	0	-0.2818064392	1.792700529	-17.86578751	1.0
90 	29.37700081	0	0	-0.2830908	1.796664715	-17.90666771	1.0
91 	29.37700081	0	0	-0.2843389511	1.800518632	-17.94640732	1.0
[LeftHandRing4]
88 	26.47500038	0	0	0	0	0	1.0
89 	26.47500038	0	0	0	0	0	1.0
90 	26.47500038	0	0	0	0	0	1.0
91 	26.47500038	0	0	0	0	0	1.0
[LeftHandPinky1]
88 	80.77799988	-4.887000084	-38.06099701	-1.727750182	4.944420338	-26.4487114	1.0
89 	80.77799988	-4.887000084	-38.06099701	-1.710333943	5.355371475	-27.16540337	1.0
90 	80.77799988	-4.887000084	-38.06099701	-1.725102067	5.378188133	-27.33865929	1.0
91 	80.77799988	-4.887000084	-38.06099701	-1.739553332	5.402239323	-27.51232147	1.0
[LeftHandPinky2]
88 	36	0	0	-0.2694313228	1.7538656	-17.46588326	1.0
89 	36	0	0	-0.2676210701	1.748102784	-17.40664291	1.0
90 	36	0	0	-0.2734357119	1.766275883	-17.59383011	1.0
91 	36	0	0	-0.2789825201	1.783666134	-17.77289963	1.0
[LeftHandPinky3]
88 	21.14200211	0	0	-0.2425733358	1.666142344	-16.56586456	1.0
89 	21.14200211	0	0	-0.2408552468	1.660357356	-16.50659752	1.0
90 	21.14200211	0	0	-0.2463332266	1.678456903	-16.69213104	1.0
91 	21.14200211	0	0	-0.2515521049	1.695757627	-16.86942673	1.0
[LeftHandPinky4]
88 	19.75699997	0	0	0	0	0	1.0
89 	19.75699997	0	0	0	0	0	1.0
90 	19.75699997	0	0	0	0	0	1.0
91 	19.75699997	0	0	0	0	0	1.0
[RightShoulder]
88 	-45.70000076	109.4620056	-26.28000069	5.16490078	14.38088799	15.71820927	1.0
89 	-45.70000076	109.4620056	-26.28000069	5.186420441	14.51016521	15.52832508	1.0
90 	-45.70000076	109.4620056	-26.28000069	5.201994896	14.56240082	15.54912472	1.0
91 	-45.70000076	109.4620056	-26.28000069	5.21763134	14.61505795	15.56958389	1.0
[RightArm]
88 	-105.9280014	-5.248000145	-22.32099915	30.04492569	2.281253338	61.59500504	1.0
89 	-105.9280014	-5.248000145	-22.32099915	30.23855019	2.220933676	62.62535477	1.0
90 	-105.9280014	-5.248000145	-22.32099915	30.35760498	2.225897789	62.46418381	1.0
91 	-105.9280014	-5.248000145	-22.32099915	30.47295189	2.230858564	62.30869293	1.0
[RightForeArm]
88 	-278.414978	0	0	4.893661298e-06	6.56602335	1.826874268e-06	1.0
89 	-278.414978	0	0	-4.000675744e-06	6.693523884	-1.670122765e-05	1.0
90 	-278.414978	0	0	-5.160377896e-06	6.866781235	-1.405534385e-05	1.0
91 	-278.414978	0	0	-6.463036698e-06	7.032564163	-1.138789321e-05	1.0
[RightHand]
88 	-283.2879944	0	0.0009999999311	-19.81973839	1.600698352	7.455910683	1.0
89 	-283.2879944	0	0.0009999999311	-20.0767746	1.855678558	6.545359612	1.0
90 	-283.2879944	0	0.0009999999311	-20.26831055	1.96350646	6.504160404	1.0
91 	-283.2879944	0	0.0009999999311	-20.45912743	2.071264267	6.462985516	1.0
[RightHandPinky1]
88 	-80.76699829	-4.885000229	-38.06000137	-1.538318157	-4.729144096	27.05099869	1.0
89 	-80.76699829	-4.885000229	-38.06000137	-1.513596416	-4.696114063	26.50595284	1.0
90 	-80.76699829	-4.885000229	-38.06000137	-1.499398947	-4.663169861	26.2988739	1.0
91 	-80.76699829	-4.885000229	-38.06000137	-1.484577179	-4.631813526	26.08647156	1.0
[RightHandPinky2]
88 	-36	0	0.0009999999311	-0.2169570476	-1.402160764	17.61003494	1.0
89 	-36	0	0.0009999999311	-0.2127667665	-1.388875008	17.43783379	1.0
90 	-36	0	0.0009999999311	-0.2142119706	-1.393460989	17.49725723	1.0
91 	-36	0	0.0009999999311	-0.2154609114	-1.397441149	17.5488205	1.0
[RightHandPinky3]
88 	-21.14200211	0	0	-0.1959012896	-1.333952546	16.70853996	1.0
89 	-21.14200211	0	0	-0.1919137388	-1.320600629	16.53641891	1.0
90 	-21.14200211	0	0	-0.1932498515	-1.325082064	16.59416771	1.0
91 	-21.14200211	0	0	-0.1944022328	-1.328965306	16.64418793	1.0
[RightHandPinky4]
88 	-19.75699997	0	0	0	0	0	1.0
89 	-19.75699997	0	0	0	0	0	1.0
90 	-19.75699997	0	0	0	0	0	1.0
91 	-19.75699997	0	0	0	0	0	1.0
[RightHandRing1]
88 	-91.03599548	-0.4390000105	-18.65100098	-1.062332273	-2.909181833	20.7367878	1.0
89 	-91.03599548	-0.4390000105	-18.65100098	-1.045241952	-2.883107424	20.47790718	1.0
90 	-91.03599548	-0.4390000105	-18.65100098	-1.033024549	-2.873128653	20.2912178	1.0
91 	-91.03599548	-0.4390000105	-18.65100098	-1.020362616	-2.866012573	20.0976696	1.0
[RightHandRing2]
88 	-31.54000092	0	0	-0.307192117	-1.660052657	20.96646309	1.0
89 	-31.54000092	0	0	-0.3066874444	-1.65875566	20.94924545	1.0
90 	-31.54000092	0	0	-0.3071574569	-1.660026073	20.9659977	1.0
91 	-31.54000092	0	0	-0.3071012795	-1.659963489	20.9650383	1.0
[RightHandRing3]
88 	-29.37700081	0	0	-0.2249610573	-1.427166343	17.9146328	1.0
89 	-29.37700081	0	0	-0.2245426178	-1.425857306	17.89771461	1.0
90 	-29.37700081	0	0	-0.2249437571	-1.427153111	17.91445351	1.0
91 	-29.37700081	0	0	-0.2248914391	-1.427092075	17.913517	1.0
[RightHandRing4]
88 	-26.47500038	0	0	0	0	0	1.0
89 	-26.47500038	0	0	0	0	0	1.0
90 	-26.47500038	0	0	0	0	0	1.0
91 	-26.47500038	0	0	0	0	0	1.0
[RightHandMiddle1]
88 	-95.32500458	0	0	-0.7118834853	-2.157497883	15.18391609	1.0
89 	-95.32500458	0	0	-0.7017182708	-2.087748528	15.01530838	1.0
90 	-95.32500458	0	0	-0.6809484363	-2.102684021	14.66119289	1.0
91 	-95.32500458	0	0	-0.6605117321	-2.115713596	14.31311989	1.0
[RightHandMiddle2]
88 	-36.98199844	0	0	-0.2099747658	-1.37994194	17.30272293	1.0
89 	-36.98199844	0	0	-0.2132273018	-1.390366316	17.43747902	1.0
90 	-36.98199844	0	0	-0.212772131	-1.388916731	17.41872597	1.0
91 	-36.98199844	0	0	-0.2123060226	-1.387432814	17.39953232	1.0
[RightHandMiddle3]
88 	-29.50900078	0	0	-0.2349575311	-1.459733725	18.31173325	1.0
89 	-29.50900078	0	0	-0.2384103686	-1.470116377	18.44692993	1.0
90 	-29.50900078	0	0	-0.2379277498	-1.468669653	18.4280777	1.0
91 	-29.50900078	0	0	-0.2374338806	-1.467188835	18.40878296	1.0
[RightHandMiddle4]
88 	-28.3390007	0	0.0009999999311	0	0	0	1.0
89 	-28.3390007	0	0.0009999999311	0	0	0	1.0
90 	-28.3390007	0	0.0009999999311	0	0	0	1.0
91 	-28.3390007	0	0.0009999999311	0	0	0	1.0
[RightHandIndex1]
88 	-91.08300018	-5.167999744	22.60099792	0.1983782351	1.282406211	6.662461281	1.0
89 	-91.08300018	-5.167999744	22.60099792	0.1864628941	1.251952291	6.825489044	1.0
90 	-91.08300018	-5.167999744	22.60099792	0.2017152309	1.282507658	6.503726006	1.0
91 	-91.08300018	-5.167999744	22.60099792	0.2161304057	1.313859224	6.194333553	1.0
[RightHandIndex2]
88 	-36.76399994	0	0	-0.2082604766	-1.374459863	17.2317028	1.0
89 	-36.76399994	0	0	-0.212510705	-1.388057113	17.40765572	1.0
90 	-36.76399994	0	0	-0.2125765681	-1.388266206	17.41036415	1.0
91 	-36.76399994	0	0	-0.2126374245	-1.388458967	17.41286087	1.0
[RightHandIndex3]
88 	-28.83100128	0	0	-0.04379437864	-0.6360090971	7.877624989	1.0
89 	-28.83100128	0	0	-0.04576295987	-0.6501216888	8.053491592	1.0
90 	-28.83100128	0	0	-0.04579464719	-0.6503366828	8.056203842	1.0
91 	-28.83100128	0	0	-0.04582398757	-0.6505345702	8.058704376	1.0
[RightHandIndex4]
88 	-23.92700005	0	0	0	0	0	1.0
89 	-23.92700005	0	0	0	0	0	1.0
90 	-23.92700005	0	0	0	0	0	1.0
91 	-23.92700005	0	0	0	0	0	1.0
[RightHandThumb1]
88 	-24.64799881	-15.72700024	26.82600021	-1.714524627	-0.1517617553	-4.130402565	1.0
89 	-24.64799881	-15.72700024	26.82600021	-1.648602366	-0.2877665758	-4.22090435	1.0
90 	-24.64799881	-15.72700024	26.82600021	-1.635259509	-0.3352696002	-4.236954212	1.0
91 	-24.64799881	-15.72700024	26.82600021	-1.622308969	-0.3816440701	-4.251953125	1.0
[RightHandThumb2]
88 	-32.29800034	-18.64699936	18.64699936	22.25641823	-23.90737534	-24.32562637	1.0
89 	-32.29800034	-18.64699936	18.64699936	22.25583267	-23.88862801	-24.283741	1.0
90 	-32.29800034	-18.64699936	18.64699936	22.11977768	-23.77702713	-24.21737862	1.0
91 	-32.29800034	-18.64699936	18.64699936	21.9882412	-23.66937447	-24.15314674	1.0
[RightHandThumb3]
88 	-26.52600098	-15.31399918	15.31399918	-14.45307541	-6.713391781	-11.29045677	1.0
89 	-26.52600098	-15.31399918	15.31399918	-14.47787762	-6.743983269	-11.36356354	1.0
90 	-26.52600098	-15.31399918	15.31399918	-14.44416237	-6.784816742	-11.3755064	1.0
91 	-26.52600098	-15.31399918	15.31399918	-14.41130257	-6.824552536	-11.38720989	1.0
[RightHandThumb4]
88 	-19.54599953	-11.28499985	11.28499985	0	0	0	1.0
89 	-19.54599953	-11.28499985	11.28499985	0	0	0	1.0
90 	-19.54599953	-11.28499985	11.28499985	0	0	0	1.0
91 	-19.54599953	-11.28499985	11.28499985	0	0	0	1.0
[LeftUpLeg]
88 	82.07800293	-67.51699829	-15.99599934	-9.148022652	16.04864693	7.065451145	1.0
89 	82.07800293	-67.51699829	-15.99599934	-8.338300705	16.22640228	7.747394085	1.0
90 	82.07800293	-67.51699829	-15.99599934	-8.711185455	16.23180771	7.746276855	1.0
91 	82.07800293	-67.51699829	-15.99599934	-9.08028698	16.23690414	7.744678497	1.0
[LeftLeg]
88 	0	-443.7049866	2.845999956	10.87868786	1.331236362	4.272135258	1.0
89 	0	-443.7049866	2.845999956	12.27614212	1.104895949	4.499945164	1.0
90 	0	-443.7049866	2.845999956	12.84409332	1.109946489	4.511650562	1.0
91 	0	-443.7049866	2.845999956	13.40685654	1.114422083	4.523777008	1.0
[LeftFoot]
88 	0	-444.2789917	-29.8219986	2.585217953	0.8370745182	-7.35711956	1.0
89 	0	-444.2789917	-29.8219986	1.202523351	0.6719551086	-7.095022202	1.0
90 	0	-444.2789917	-29.8219986	0.8162186742	0.6336758733	-7.095033646	1.0
91 	0	-444.2789917	-29.8219986	0.4289038181	0.5951684713	-7.093954563	1.0
[LeftToeBase]
88 	0	-87.28699493	107.1060028	-4.700619698	1.282606799e-09	-2.910918738e-06	1.0
89 	0	-87.28699493	107.1060028	-4.939515591	-5.797785889e-06	1.641620884e-06	1.0
90 	0	-87.28699493	107.1060028	-4.942993641	-4.024310329e-06	1.588304826e-06	1.0
91 	0	-87.28699493	107.1060028	-4.947620392	-2.307873501e-06	1.592443823e-06	1.0
[RightUpLeg]
88 	-82.07800293	-67.51699829	-15.99599934	-1.966077447	-10.414608	3.684630632	1.0
89 	-82.07800293	-67.51699829	-15.99599934	0.0181392543	-10.40633869	3.456335068	1.0
90 	-82.07800293	-67.51699829	-15.99599934	-0.3307409286	-10.39430809	3.474509239	1.0
91 	-82.07800293	-67.51699829	-15.99599934	-0.6776558161	-10.38219833	3.492710114	1.0
[RightLeg]
88 	0	-443.7049866	2.861999989	8.850408554	-9.355495453	-5.36063385	1.0
89 	0	-443.7049866	2.861999989	7.963478088	-9.246150017	-4.548660755	1.0
90 	0	-443.7049866	2.861999989	8.474292755	-9.217554092	-4.609389782	1.0
91 	0	-443.7049866	2.861999989	8.983442307	-9.189809799	-4.670696735	1.0
[RightFoot]
88 	0	-444.2770081	-29.83799934	-3.528866291	-1.461788058	3.214257956	1.0
89 	0	-444.2770081	-29.83799934	-3.732047319	-1.426525593	3.292552948	1.0
90 	0	-444.2770081	-29.83799934	-4.040384769	-1.399219275	3.387712479	1.0
91 	0	-444.2770081	-29.83799934	-4.347762108	-1.37209487	3.482895851	1.0
[RightToeBase]
88 	0	-87.28699493	107.1060028	-7.307800293	7.602683581e-06	-8.382344276e-07	1.0
89 	0	-87.28699493	107.1060028	-7.282880306	4.616419574e-06	-2.214504207e-07	1.0
90 	0	-87.28699493	107.1060028	-7.297859669	2.903432232e-06	-3.710638907e-07	1.0
91 	0	-87.28699493	107.1060028	-7.313462257	1.074838792e-06	-5.388891964e-07	1.0
[EndOfFile]
